<svg width="484" height="816" viewBox="0 0 484 816" fill="none" xmlns="http://www.w3.org/2000/svg"><mask id="path-1-inside-1" fill="white"><path d="M263.786 0.766602C283.203 3.57159 291.578 5.61157 303.674 10.584C332.769 22.569 353.612 45.7739 359.009 72.1663C359.506 74.4613 360.994 79.8801 362.359 84.0875C373.525 118.767 374.27 153.192 364.468 183.92C357.334 206.487 346.54 226.377 327.434 252.323C310.002 276.038 306.528 281.266 308.265 281.074C308.575 281.074 332.769 264.754 362.111 244.864L415.461 208.655L415.523 195.968C415.585 185.195 415.771 182.517 416.888 178.373C418.873 170.787 420.982 167.281 424.58 165.368C426.131 164.54 426.441 164.603 427.434 165.623C428.116 166.325 428.798 168.237 429.046 170.086C429.481 173.656 428.612 184.876 427.247 193.163C425.448 203.682 426.255 203.3 430.535 191.57C436.863 174.485 443.811 162.627 449.394 159.631C453.674 157.336 457.768 159.503 460.932 165.751C462.917 169.576 463.041 170.213 462.793 174.485C462.235 182.963 456.59 191.633 445.858 200.558C442.818 203.108 440.213 205.531 440.089 205.913C439.903 206.423 442.074 206.423 447.533 206.105C458.699 205.34 473.277 205.531 477.371 206.487C479.419 206.933 481.652 207.953 482.644 208.846L484.319 210.376L481.156 213.436C476.503 217.898 471.912 219.365 462.049 219.365C451.565 219.365 441.081 217.452 427.372 212.926C423.836 211.778 420.982 211.141 420.486 211.46C419.989 211.715 391.764 233.326 357.769 259.463C304.853 300.072 295.672 306.957 294.059 306.765C292.322 306.638 292.136 306.893 289.406 312.822C286.553 319.133 281.776 332.839 281.776 334.815C281.776 336.6 282.707 336.218 287.856 332.52C293.563 328.44 297.657 326.273 302.186 324.87C308.885 322.83 316.516 324.042 316.516 327.165C316.516 330.799 306.652 338.067 290.151 346.609C285.002 349.287 280.722 351.582 280.535 351.709C279.853 352.347 282.148 353.048 285.995 353.367C292.012 353.94 300.076 356.172 305.039 358.594C313.724 362.802 318.377 368.985 318.377 376.253V379.95L316.329 380.014C315.275 380.014 313.786 380.269 313.104 380.588C312.049 380.97 312.359 381.225 314.779 381.863C316.454 382.309 317.756 382.883 317.756 383.138C317.756 384.158 314.468 386.899 312.793 387.281C308.017 388.365 297.967 383.648 286.615 375.041C281.714 371.28 279.543 370.005 279.171 370.579C278.426 371.79 279.047 373.001 283.947 380.651C290.089 390.086 291.205 394.485 287.607 395.123C285.374 395.569 285.436 396.398 288.166 402.071C294.493 414.949 301.193 423.619 317.942 440.449C330.597 453.199 338.166 461.932 345.486 472.451C364.779 500.182 376.937 531.42 380.411 562.338C381.528 572.092 380.908 594.341 379.233 603.074C373.712 632.59 359.195 658.027 336.739 677.662C334.133 679.893 332.024 682.124 332.024 682.507C332.024 682.889 334.32 687.224 337.049 692.069C344.555 705.138 350.014 716.868 350.014 719.736C350.014 723.561 345.92 729.235 335.498 739.818C327.372 748.169 314.344 760.09 306.28 766.72C304.915 767.804 303.985 768.951 304.233 769.206C304.481 769.461 306.156 769.334 307.955 768.951C343.935 761.238 362.111 758.815 380.287 759.453C391.64 759.835 395.486 760.6 402.123 763.915C416.081 770.927 422.533 787.375 414.53 795.599C410.746 799.487 408.699 799.742 384.444 799.679C342.26 799.615 272.161 791.965 268.129 786.992C267.136 785.781 272.409 781.191 289.096 768.696C327.496 740.009 336.056 732.168 336.056 725.793C336.056 722.86 333.327 716.485 329.357 710.174C325.511 703.99 317.694 692.962 317.136 692.962C316.888 692.962 313.476 694.874 309.63 697.233C287.731 710.365 264.158 719.035 240.709 722.669C231.094 724.135 212.918 724.454 203.612 723.37C199.332 722.86 195.61 722.669 195.3 722.988C194.99 723.306 195.052 724.964 195.486 727.131C196.789 733.953 196.044 738.479 192.384 745.173C187.359 754.416 175.077 766.274 163.104 773.477C161.491 774.497 160.312 775.517 160.498 775.836C160.684 776.091 162.856 775.836 165.275 775.135C177.248 772.011 184.258 771.119 197.099 771.119C211.181 771.119 218.067 772.266 227.744 776.091C254.171 786.61 273.277 805.225 264.965 812.429C263.91 813.321 262.856 814.086 262.669 814.086C262.421 814.086 258.451 814.532 253.861 815.042C244.059 816.126 233.513 816.254 219.183 815.361C213.538 815.042 202.062 814.469 193.687 814.086C147.843 812.046 109.692 807.137 104.233 802.611C101.441 800.316 103.675 798.085 125.697 781.956C149.27 764.552 156.404 758.688 165.151 749.316C173.65 740.2 177.868 732.869 178.55 725.793C179.171 719.29 179.109 719.226 167.88 715.401C127.806 701.695 89.0345 671.35 57.1486 628.511C42.3223 608.684 29.4191 585.989 21.8509 566.482C10.5606 537.221 3.42661 500.883 0.759125 458.681C-0.0473328 446.122 -0.0473328 408.51 0.759125 395.569C5.78391 313.842 25.7591 237.533 60.9948 165.751C108.948 67.9589 170.176 10.7115 236.181 1.91406C239.22 1.53162 243.625 0.894104 245.92 0.575317C250.883 -0.125916 258.203 -0.0621338 263.786 0.766602Z"/></mask><path d="M263.786 0.766602C283.203 3.57159 291.578 5.61157 303.674 10.584C332.769 22.569 353.612 45.7739 359.009 72.1663C359.506 74.4613 360.994 79.8801 362.359 84.0875C373.525 118.767 374.27 153.192 364.468 183.92C357.334 206.487 346.54 226.377 327.434 252.323C310.002 276.038 306.528 281.266 308.265 281.074C308.575 281.074 332.769 264.754 362.111 244.864L415.461 208.655L415.523 195.968C415.585 185.195 415.771 182.517 416.888 178.373C418.873 170.787 420.982 167.281 424.58 165.368C426.131 164.54 426.441 164.603 427.434 165.623C428.116 166.325 428.798 168.237 429.046 170.086C429.481 173.656 428.612 184.876 427.247 193.163C425.448 203.682 426.255 203.3 430.535 191.57C436.863 174.485 443.811 162.627 449.394 159.631C453.674 157.336 457.768 159.503 460.932 165.751C462.917 169.576 463.041 170.213 462.793 174.485C462.235 182.963 456.59 191.633 445.858 200.558C442.818 203.108 440.213 205.531 440.089 205.913C439.903 206.423 442.074 206.423 447.533 206.105C458.699 205.34 473.277 205.531 477.371 206.487C479.419 206.933 481.652 207.953 482.644 208.846L484.319 210.376L481.156 213.436C476.503 217.898 471.912 219.365 462.049 219.365C451.565 219.365 441.081 217.452 427.372 212.926C423.836 211.778 420.982 211.141 420.486 211.46C419.989 211.715 391.764 233.326 357.769 259.463C304.853 300.072 295.672 306.957 294.059 306.765C292.322 306.638 292.136 306.893 289.406 312.822C286.553 319.133 281.776 332.839 281.776 334.815C281.776 336.6 282.707 336.218 287.856 332.52C293.563 328.44 297.657 326.273 302.186 324.87C308.885 322.83 316.516 324.042 316.516 327.165C316.516 330.799 306.652 338.067 290.151 346.609C285.002 349.287 280.722 351.582 280.535 351.709C279.853 352.347 282.148 353.048 285.995 353.367C292.012 353.94 300.076 356.172 305.039 358.594C313.724 362.802 318.377 368.985 318.377 376.253V379.95L316.329 380.014C315.275 380.014 313.786 380.269 313.104 380.588C312.049 380.97 312.359 381.225 314.779 381.863C316.454 382.309 317.756 382.883 317.756 383.138C317.756 384.158 314.468 386.899 312.793 387.281C308.017 388.365 297.967 383.648 286.615 375.041C281.714 371.28 279.543 370.005 279.171 370.579C278.426 371.79 279.047 373.001 283.947 380.651C290.089 390.086 291.205 394.485 287.607 395.123C285.374 395.569 285.436 396.398 288.166 402.071C294.493 414.949 301.193 423.619 317.942 440.449C330.597 453.199 338.166 461.932 345.486 472.451C364.779 500.182 376.937 531.42 380.411 562.338C381.528 572.092 380.908 594.341 379.233 603.074C373.712 632.59 359.195 658.027 336.739 677.662C334.133 679.893 332.024 682.124 332.024 682.507C332.024 682.889 334.32 687.224 337.049 692.069C344.555 705.138 350.014 716.868 350.014 719.736C350.014 723.561 345.92 729.235 335.498 739.818C327.372 748.169 314.344 760.09 306.28 766.72C304.915 767.804 303.985 768.951 304.233 769.206C304.481 769.461 306.156 769.334 307.955 768.951C343.935 761.238 362.111 758.815 380.287 759.453C391.64 759.835 395.486 760.6 402.123 763.915C416.081 770.927 422.533 787.375 414.53 795.599C410.746 799.487 408.699 799.742 384.444 799.679C342.26 799.615 272.161 791.965 268.129 786.992C267.136 785.781 272.409 781.191 289.096 768.696C327.496 740.009 336.056 732.168 336.056 725.793C336.056 722.86 333.327 716.485 329.357 710.174C325.511 703.99 317.694 692.962 317.136 692.962C316.888 692.962 313.476 694.874 309.63 697.233C287.731 710.365 264.158 719.035 240.709 722.669C231.094 724.135 212.918 724.454 203.612 723.37C199.332 722.86 195.61 722.669 195.3 722.988C194.99 723.306 195.052 724.964 195.486 727.131C196.789 733.953 196.044 738.479 192.384 745.173C187.359 754.416 175.077 766.274 163.104 773.477C161.491 774.497 160.312 775.517 160.498 775.836C160.684 776.091 162.856 775.836 165.275 775.135C177.248 772.011 184.258 771.119 197.099 771.119C211.181 771.119 218.067 772.266 227.744 776.091C254.171 786.61 273.277 805.225 264.965 812.429C263.91 813.321 262.856 814.086 262.669 814.086C262.421 814.086 258.451 814.532 253.861 815.042C244.059 816.126 233.513 816.254 219.183 815.361C213.538 815.042 202.062 814.469 193.687 814.086C147.843 812.046 109.692 807.137 104.233 802.611C101.441 800.316 103.675 798.085 125.697 781.956C149.27 764.552 156.404 758.688 165.151 749.316C173.65 740.2 177.868 732.869 178.55 725.793C179.171 719.29 179.109 719.226 167.88 715.401C127.806 701.695 89.0345 671.35 57.1486 628.511C42.3223 608.684 29.4191 585.989 21.8509 566.482C10.5606 537.221 3.42661 500.883 0.759125 458.681C-0.0473328 446.122 -0.0473328 408.51 0.759125 395.569C5.78391 313.842 25.7591 237.533 60.9948 165.751C108.948 67.9589 170.176 10.7115 236.181 1.91406C239.22 1.53162 243.625 0.894104 245.92 0.575317C250.883 -0.125916 258.203 -0.0621338 263.786 0.766602Z" fill="#621708" stroke="black" stroke-width="2" mask="url(#path-1-inside-1)"/></svg>