<svg width="233" height="296" viewBox="0 0 233 296" fill="none" xmlns="http://www.w3.org/2000/svg">
<path d="M232.304 133.794C230.44 117.401 215.127 105.782 198.628 105.782H116.239C123.241 93.2445 126.999 57.7839 126.833 43.2981C126.556 19.3202 106.699 0.105225 82.7207 0.105225H74.0006C68.1598 0.105225 63.4326 4.83163 63.4326 10.6732C63.4326 35.1102 53.9173 79.2186 35.9714 97.1651C23.8925 109.244 13.5664 113.621 0.0263672 120.388V278.955C20.7566 285.865 47.0773 296 87.1954 296H156.324C179.101 296 196.841 274.904 188.015 252.615C201.462 248.952 211.379 236.619 211.379 222.027C211.379 217.908 210.584 213.967 209.15 210.344C231.811 204.17 240.152 176.189 224.424 158.62C230.202 152.165 233.389 143.335 232.304 133.794Z" fill="#621708"/>
</svg>
