<?xml version="1.0" standalone="no"?>
<!DOCTYPE svg PUBLIC "-//W3C//DTD SVG 20010904//EN"
 "http://www.w3.org/TR/2001/REC-SVG-20010904/DTD/svg10.dtd">
<svg version="1.0" xmlns="http://www.w3.org/2000/svg"
 width="806.000000pt" height="1280.000000pt" viewBox="0 0 806.000000 1280.000000"
 preserveAspectRatio="xMidYMid meet">
<g transform="translate(0.000000,1280.000000) scale(0.100000,-0.100000)"
fill="#000000" stroke="none">
<path d="M3550 12788 c-313 -44 -448 -76 -643 -154 -469 -188 -805 -552 -892
-966 -8 -36 -32 -121 -54 -187 -180 -544 -192 -1084 -34 -1566 115 -354 289
-666 597 -1073 281 -372 337 -454 309 -451 -5 0 -395 256 -868 568 l-860 568
-1 199 c-1 169 -4 211 -22 276 -32 119 -66 174 -124 204 -25 13 -30 12 -46 -4
-11 -11 -22 -41 -26 -70 -7 -56 7 -232 29 -362 29 -165 16 -159 -53 25 -102
268 -214 454 -304 501 -69 36 -135 2 -186 -96 -32 -60 -34 -70 -30 -137 9
-133 100 -269 273 -409 49 -40 91 -78 93 -84 3 -8 -32 -8 -120 -3 -180 12
-415 9 -481 -6 -33 -7 -69 -23 -85 -37 l-27 -24 51 -48 c75 -70 149 -93 308
-93 169 0 338 30 559 101 57 18 103 28 111 23 8 -4 463 -343 1011 -753 853
-637 1001 -745 1027 -742 28 2 31 -2 75 -95 46 -99 123 -314 123 -345 0 -28
-15 -22 -98 36 -92 64 -158 98 -231 120 -108 32 -231 13 -231 -36 0 -57 159
-171 425 -305 83 -42 152 -78 155 -80 11 -10 -26 -21 -88 -26 -97 -9 -227 -44
-307 -82 -140 -66 -215 -163 -215 -277 l0 -58 33 -1 c17 0 41 -4 52 -9 17 -6
12 -10 -27 -20 -27 -7 -48 -16 -48 -20 0 -16 53 -59 80 -65 77 -17 239 57 422
192 79 59 114 79 120 70 12 -19 2 -38 -77 -158 -99 -148 -117 -217 -59 -227
36 -7 35 -20 -9 -109 -102 -202 -210 -338 -480 -602 -204 -200 -326 -337 -444
-502 -311 -435 -507 -925 -563 -1410 -18 -153 -8 -502 19 -639 89 -463 323
-862 685 -1170 42 -35 76 -70 76 -76 0 -6 -37 -74 -81 -150 -121 -205 -209
-389 -209 -434 0 -60 66 -149 234 -315 131 -131 341 -318 471 -422 22 -17 37
-35 33 -39 -4 -4 -31 -2 -60 4 -580 121 -873 159 -1166 149 -183 -6 -245 -18
-352 -70 -225 -110 -329 -368 -200 -497 61 -61 94 -65 485 -64 680 1 1810 121
1875 199 16 19 -69 91 -338 287 -619 450 -757 573 -757 673 0 46 44 146 108
245 62 97 188 270 197 270 4 0 59 -30 121 -67 353 -206 733 -342 1111 -399
155 -23 448 -28 598 -11 69 8 129 11 134 6 5 -5 4 -31 -3 -65 -21 -107 -9
-178 50 -283 81 -145 279 -331 472 -444 26 -16 45 -32 42 -37 -3 -4 -38 0 -77
11 -193 49 -306 63 -513 63 -227 0 -338 -18 -494 -78 -426 -165 -734 -457
-600 -570 17 -14 34 -26 37 -26 4 0 68 -7 142 -15 158 -17 328 -19 559 -5 91
5 276 14 411 20 739 32 1354 109 1442 180 45 36 9 71 -346 324 -380 273 -495
365 -636 512 -137 143 -205 258 -216 369 -10 102 -9 103 172 163 646 215 1271
691 1785 1363 239 311 447 667 569 973 182 459 297 1029 340 1691 13 197 13
787 0 990 -81 1282 -403 2479 -971 3605 -773 1534 -1760 2432 -2824 2570 -49
6 -120 16 -157 21 -80 11 -198 10 -288 -3z"/>
</g>
</svg>
